<svg xmlns="http://www.w3.org/2000/svg" version="1.1" xmlns:xlink="http://www.w3.org/1999/xlink" xmlns:svgjs="http://svgjs.com/svgjs" viewBox="0 0 640 400" data-background-color="#ffffff" preserveAspectRatio="xMidYMid meet" height="400" width="640"><rect width="640" height="400" x="0" y="0" opacity="1" fill="#ffffff" data-fill-palette-color="background" id="background"></rect><g id="tight-bounds" transform="matrix(1,0,0,1,122.24000000000001,76.4)"><svg viewBox="0 0 395.52 247.2" height="247.2" width="395.52"><g><svg xmlns="http://www.w3.org/2000/svg" version="1.1" xmlns:xlink="http://www.w3.org/1999/xlink" xmlns:svgjs="http://svgjs.com/svgjs"></svg></g><g><svg viewBox="0 0 395.52 247.2" height="247.2" width="395.52"><g transform="matrix(1,0,0,1,75.54432,52.58813406807131)"><svg viewBox="0 0 244.43135999999998 142.02373186385736" height="142.02373186385736" width="244.43135999999998"><g><svg viewBox="0 0 244.43135999999998 142.02373186385736" height="142.02373186385736" width="244.43135999999998"><g><svg viewBox="0 0 244.43135999999998 142.02373186385736" height="142.02373186385736" width="244.43135999999998"><g><svg viewBox="0 0 244.43135999999998 142.02373186385736" height="142.02373186385736" width="244.43135999999998"><g><svg viewBox="0 0 244.43135999999998 142.02373186385736" height="142.02373186385736" width="244.43135999999998"><g><svg viewBox="0 0 244.43135999999998 142.02373186385736" height="142.02373186385736" width="244.43135999999998"><g transform="matrix(1,0,0,1,0,0)"><svg width="244.43135999999998" viewBox="2 -35.35 61.7 35.85" height="142.02373186385736" data-palette-color="#20c0f1"><path d="M7.85 0L2.2 0Q2 0 2-0.25L2-0.25 2.1-34.55Q2.1-34.8 2.3-34.8L2.3-34.8 7.9-34.8Q8.1-34.8 8.1-34.55L8.1-34.55 8.1-22.7 15.95-34.6Q16.1-34.8 16.3-34.8L16.3-34.8 22.05-34.8Q22.25-34.8 22.15-34.6L22.15-34.6 13.5-20.8 23.2-0.2Q23.3 0 22.95 0L22.95 0 16.85 0Q16.6 0 16.55-0.2L16.55-0.2 9.8-14.9 8.05-12.15 8.05-0.25Q8.05 0 7.85 0L7.85 0ZM31.3 0L25.7 0Q25.45 0 25.45-0.25L25.45-0.25 25.55-34.6Q25.55-34.8 25.75-34.8L25.75-34.8 41.75-34.8Q42-34.8 42-34.6L42-34.6 42-28.95Q42-28.75 41.8-28.75L41.8-28.75 31.55-28.75 31.55-21 41.8-21Q42-21 42-20.75L42-20.75 42.05-15.1Q42.05-14.9 41.8-14.9L41.8-14.9 31.55-14.9 31.55-0.25Q31.55 0 31.3 0L31.3 0ZM53.9 0.5L53.9 0.5Q51.15 0.5 48.92-0.88 46.7-2.25 45.4-4.55 44.1-6.85 44.1-9.7L44.1-9.7 44.15-25.3Q44.15-28.05 45.42-30.33 46.7-32.6 48.92-33.98 51.15-35.35 53.9-35.35L53.9-35.35Q56.65-35.35 58.85-34 61.05-32.65 62.35-30.38 63.65-28.1 63.65-25.3L63.65-25.3 63.65-23Q63.65-22.8 63.45-22.8L63.45-22.8 57.85-22.8Q57.65-22.8 57.65-23L57.65-23 57.65-25.3Q57.65-26.95 56.57-28.15 55.5-29.35 53.9-29.35L53.9-29.35Q52.1-29.35 51.15-28.13 50.2-26.9 50.2-25.3L50.2-25.3 50.2-9.7Q50.2-7.85 51.27-6.7 52.35-5.55 53.9-5.55L53.9-5.55Q55.5-5.55 56.57-6.83 57.65-8.1 57.65-9.7L57.65-9.7 57.65-12Q57.65-12.2 57.85-12.2L57.85-12.2 63.5-12.2Q63.7-12.2 63.7-12L63.7-12 63.7-9.7Q63.7-6.85 62.37-4.55 61.05-2.25 58.85-0.88 56.65 0.5 53.9 0.5Z" opacity="1" transform="matrix(1,0,0,1,0,0)" fill="#20c0f1" class="undefined-text-0" data-fill-palette-color="primary" id="text-0"></path></svg></g></svg></g></svg></g></svg></g></svg></g></svg></g></svg></g><path d="M142.905 46.588L142.905 2.66 384.786 2.66 384.786 244.54 142.905 244.54 142.905 200.612 155.713 200.612 155.713 231.733 371.978 231.733 371.978 15.467 155.713 15.467 155.713 46.588Z" fill="#20c0f1" stroke="transparent" data-fill-palette-color="primary"></path></svg></g></svg><rect width="395.52" height="247.2" fill="transparent" stroke="transparent"></rect></g><defs></defs></svg>